# xmcd CD database file
# Copyright (C) 1996 Ti Kan
#
# Track frame offsets:
#  183
#  10655
#  43175
#  71500
#  83760
#  92990
#  102220
#  126203
#  138158
#  155960
#  172333
#  180155
#  195058
#  210020
#  219980
#  231475
#
# Disc length: 3237 seconds
#
# Revision: 1
# Processed by: cddbd v1.4b41PL1 Copyright (c) Steve Scherf et al.
# Submitted via: CDWizzard Release:4.14
#
DISCID=d10ca310
DTITLE=Buddy Guy - The Treasure Untold
DYEAR=1900
DGENRE=
TTITLE0=First Time I Met The Blues
TTITLE1=Stone Crazy
TTITLE2=I Found A True Love
TTITLE3=Skippin'
TTITLE4=The Treasure Untold
TTITLE5=American Bandstand
TTITLE6=Don't Know Which Way To Go
TTITLE7=Buddy's Boogie
TTITLE8=Worried Blues (Stick Around)
TTITLE9=Moanin'
TTITLE10=I Dig Your Wig
TTITLE11=My Time After Awhile
TTITLE12=Night Flight
TTITLE13=You Got To Use Your Head
TTITLE14=Keep It To Yourself
TTITLE15=My Mother
EXTD=Charley Blues Masterworks Vol. 11
EXTT0=
EXTT1=
EXTT2=
EXTT3=
EXTT4=
EXTT5=
EXTT6=
EXTT7=
EXTT8=
EXTT9=
EXTT10=
EXTT11=
EXTT12=
EXTT13=
EXTT14=
EXTT15=
PLAYORDER=
